<?xml version="1.0" encoding="iso-8859-1"?>
<!-- Generator: Adobe Illustrator 19.0.0, SVG Export Plug-In . SVG Version: 6.00 Build 0)  -->
<svg version="1.1" id="Layer_1" xmlns="http://www.w3.org/2000/svg" xmlns:xlink="http://www.w3.org/1999/xlink" x="0px" y="0px"
	 viewBox="0 0 512 512" style="enable-background:new 0 0 512 512;" xml:space="preserve">
<g>
	<g>
		<path d="M511.501,197.663c-1.199-3.692-4.391-6.384-8.233-6.942L338.73,166.813L265.147,17.716
			c-1.719-3.481-5.264-5.685-9.147-5.685c-3.883,0-7.428,2.204-9.147,5.685l-73.583,149.096L8.732,190.721
			C4.891,191.28,1.7,193.97,0.5,197.662c-1.199,3.692-0.2,7.745,2.58,10.455l119.06,116.056L94.033,488.045
			c-0.656,3.827,0.918,7.694,4.058,9.976c3.141,2.282,7.305,2.582,10.741,0.776l147.167-77.37l147.168,77.371
			c1.492,0.784,3.121,1.171,4.745,1.171c2.114,0,4.218-0.657,5.995-1.948c3.141-2.283,4.715-6.15,4.058-9.976l-28.107-163.872
			l119.062-116.055C511.7,205.409,512.7,201.355,511.501,197.663z M371.78,313.309c-2.403,2.343-3.5,5.719-2.933,9.027
			l25.519,148.789l-133.622-70.249c-1.485-0.78-3.115-1.171-4.746-1.171c-1.63,0-3.261,0.391-4.745,1.171l-133.622,70.249
			l25.519-148.789c0.567-3.309-0.53-6.685-2.933-9.027L32.117,207.936l149.393-21.709c3.322-0.482,6.193-2.569,7.679-5.579
			l66.81-135.373l66.81,135.374c1.486,3.01,4.357,5.097,7.679,5.579l149.395,21.708L371.78,313.309z"/>
	</g>
</g>
<g>
	<g>
		<path d="M370.084,422.954l-8.113-47.307c-0.953-5.551-6.217-9.284-11.777-8.329c-5.551,0.952-9.281,6.225-8.329,11.776
			l8.113,47.307c0.853,4.969,5.165,8.477,10.041,8.477c0.571,0,1.151-0.048,1.736-0.148
			C367.307,433.779,371.037,428.506,370.084,422.954z"/>
	</g>
</g>
<g>
	<g>
		<path d="M357.072,347.089l-0.7-4.08c-0.953-5.551-6.226-9.279-11.776-8.33c-5.551,0.952-9.281,6.225-8.33,11.776l0.7,4.08
			c0.852,4.969,5.165,8.478,10.041,8.478c0.571,0,1.153-0.048,1.735-0.148C354.294,357.913,358.024,352.64,357.072,347.089z"/>
	</g>
</g>
<g>
</g>
<g>
</g>
<g>
</g>
<g>
</g>
<g>
</g>
<g>
</g>
<g>
</g>
<g>
</g>
<g>
</g>
<g>
</g>
<g>
</g>
<g>
</g>
<g>
</g>
<g>
</g>
<g>
</g>
</svg>
